<?xml version="1.0" encoding="UTF-8"?><svg xmlns="http://www.w3.org/2000/svg" viewBox="0 0 2179.9 1738.34"><defs><style>.cls-1{stroke:#e30613;stroke-width:4px;}.cls-1,.cls-2{fill:none;stroke-miterlimit:10;}.cls-2{stroke:#009fe3;stroke-width:5px;}</style></defs><g id="_אזורים"><path id="_51" class="cls-1" d="m873.94,354.71s115.44-118.09,117.64-122.21,27.98,17.08,33.57,19.44,101.01-34.01,125.01-35.04l12.96,36.52-16.49,8.25s-3.12,12.53,4.96,18.07,16.77,9.02,22.47,14.76,4.56,14.72,3.47,20.17-12.38,54.71-13.98,57.98-20.45-5.86-20.45-5.86l-57.69,90.37-20.05-32.8-28.84,29.96,22.27,18.91-15.51,62.88s27.18,28.78,36.89,38.24,19.65,40.82,18.33,63.79l-115.58,14.44,2.94-64.35s-3.98-27.39-15.46-32.25-79.15-32.6-101.86-36.4-27.87-8.22-27.87-8.22c0,0,11-43.03,11.28-47.47s.29-13.49,9.78-14.37,35.82-2.65,35.8-9.28-4.6-17.64-5.07-22.63,3.06-27.07,2.84-29.94-6.26-25.77-21.35-32.98Z"/>
    <g id="_54"><path class="cls-1" d="m892.53,424.99c-3.4-9.22-.46-4.23-2.17-12.85s3.09-16.12,2.02-29.99c-1.03-13.31-18.22-24.98-19.6-25.9l.22-.61-126.04-144.88-39.68,97.47s25.51,11.37,27.17,14.13-30.92,106.79-30.92,108.88.33,8.61,9.06,11.48c0,0-26.17,145.77-27.17,150.4-.99,4.64-.66,15.02,7.29,14.13,7.95-.88,16.12-2.32,16.12-1.33,0,.13-.32,1.1-.41,1.97-.64,2.52-1.8,6.42-1.8,6.42l1.45.42,29.5,8.54,32.75,18.97,2.37-8.8.27.08,45.54-126.49,20.94,5.8s14.44-55.66,19.83-61.66,30.83-4.6,35.93-7.22.74-9.76-2.65-18.98Z"/>
    </g><path id="_53" class="cls-1" d="m818.48,507.06l50.05,12.53s-19.83,57.38-25.02,76.59-12.26,40.64-11.16,52.12,3.98,22.53,3.98,22.53l-62.28,6.18s-16.12-3.75-11.93-16.34,9.6-23.65,9.6-23.65l46.77-129.97Z"/>
    <path id="_52" class="cls-1" d="m869.41,519.74s40.78,11.25,54.75,17.83,44.56,16.48,47.69,19.18,11.25,17.69,12.62,24.58c0,0,2.55,5.58.91,16.84s-2.64,55.65-2.64,55.65l-145.55,16.34s-5.28-20.68-4.96-23.65.89-11.7,2.76-19.08c2.75-6.86,34.41-107.69,34.41-107.69Z"/>
    <path id="_44" class="cls-1" d="m706.61,614.34s27.13,6.75,31.74,9.42l31.15,18.04s-10.93,18.86-10.26,23.5,6.82,10.5,12.4,10.94,211.1-22.43,211.1-22.43l115.73-15.68s1.33,13.47-3.98,32.02-27.83,72.88-34.9,80.83-121.69,120.37-138.26,134.72-272.54,221.52-272.54,221.52c0,0,27.17-27.61,36.22-43.73s16.79-41.52,16.79-41.52l-10.16-8.83,23.85-56.1-100.71-30.04-6.63,17.23-29.6-5.74,2.65-6.63s-11.93-6.4-16.34-3.98-10.16,25.62-10.16,25.62l-26.5-3.53s12.15-54.33,23.41-92.32,56.98-154.6,60.52-159.46,76.86-21.2,76.86-21.2l17.6-62.67Z"/>
    <path id="_13" class="cls-1" d="m1098.48,638.14s123.68,8.61,145.33,18.55,19.66,19.21,25.18,20.32,59.85,27.39,67.14,31.36,10.16,7.95,10.16,7.95l-79.51,212.02-13.69,4.42s-25.4,88.56-25.18,89.67-122.36-101.6-122.36-101.6l27.39-28.27s-75.75-71.34-80.39-72.44-11.48.88-20.32-8.39-16.77-16.76-16.77-16.76c0,0,41.4-39.93,44.15-43.98s26.97-56.01,33.21-77.54,5.66-35.32,5.66-35.32Z"/>
    <path id="_-" class="cls-1" d="m1105.55,920.84c-3.68-3.68-52.56-48.64-56.69-48.83s-20.91-7.17-28.86,0-117.5,91.98-124.27,99.63-68.32,74.5-76.56,83.63-33.42,32.39-49.47,37.69-14.87,4.12-16.05,5.3c0,0-41.52,8.98-61.1,15.61s-58.31,40.2-65.82,56.39-50.94,102.48-50.94,102.48l-39.17-9.13s22.97-41.23,21.79-46.23,16.79-28.12,18.85-31.21-17.67-6.48-17.67-6.48l-16.34,29.74-55.07-14.43,3.24-21.5s65.23-10.16,94.53-23.85,65.63-45.26,65.63-45.26c0,0,354.85-284.43,363.89-309.41,0,0,15.46,19.25,23.29,21.98s13.49,2.48,16.86,5.22,77.33,70.39,77.33,70.39l-27.39,28.27Z"/>
    <path id="_41" class="cls-1" d="m1105.55,920.84s-48.62-43.52-51.78-45.76-18.46-7.58-24.63-6.28-123.98,94.59-123.98,94.59l22.96,27.38s-16.64,13.4-24.74,25.33-8.83,30.77-3.83,37.69,70.97,57.72,70.97,57.72c0,0,23.26-20.02,25.03-23.26s46.53-99.98,49.47-103.95,60.52-63.46,60.52-63.46Z"/>
    <path id="_-2" class="cls-1" d="m1105.55,920.84l121.27,100.83s-18.35,21.53-22.76,28.3-59.78,89.52-59.78,89.52c0,0-33.87-23.41-34.45-25.03s1.77-7.21,5.89-10.9,27.39-28.71,27.39-36.52,4.12-23.26-2.94-31.21-42.03-33.42-47.66-38.87-40.28-20.52-40.28-20.52l53.35-55.61Z"/>
    <path id="_42" class="cls-1" d="m906.66,965.18l21.47,25.6s-16.63,14.03-21.47,20.96-13.4,18.5-10.25,30.28,5.43,14.48,10.82,19.04,63.3,50.46,63.3,50.46l-42.7,47.71s-4.71,4.27-2.65,8.25,7.95,11.19,7.95,11.19c0,0-16.64,7.51-24.44,18.85s-50.36,90.99-50.36,90.99l-44.91-27.39,6.92-7.07s-52.86-17.37-56.83-22.09-11.78-12.66-23.26-17.08-36.22-10.6-36.22-10.6l-3.53,19.29-80.1-40.19s10.8-23.16,24.14-35.2,28.93-23.99,31.71-25.76,32.14-13.44,44.06-16.35,54.11-11.78,66.18-22.38,111.61-113.94,113.15-115.64,7.02-2.86,7.02-2.86Z"/>
    <path id="_32" class="cls-1" d="m1052.2,976.45s30.78,13.04,37.34,18.33,47.89,37.89,50.61,41.06,5.1,29.44,1.85,35.06-29.7,35.39-31.75,40.62,34.02,27.98,34.02,27.98c0,0-37.4,48.59-42.04,59.41s-64.49,125.01-64.49,125.01c0,0-13.69-4.64-13.69-7.07s1.77-6.18,1.77-6.18c0,0-42.63-37.55-47.71-34.45s-26.06,33.57-26.06,33.57l-49.03-27.83,6.18-12.81s-29.71-9.3-30.92-12.37,2.62-10.11,4.63-13.78,23.66-48.37,32.49-52.85,17.73-11.48,17.73-11.48l-7.95-11.19s10.7-17.23,20.31-27.98,50.07-51.24,50.07-51.24c0,0,45.69-99.72,49.47-103.95s7.17-7.86,7.17-7.86Z"/>
    <path id="_25" class="cls-1" d="m1144.27,1139.49s35.04,21.2,43.21,33.13,23.85,33.57,23.85,33.57l-80.83,143.56,13.77,9.28-18.18,47.26-30.04-9.72,12.37-32.69-70.67-39.98s62.91-123.51,67.8-130.95,38.72-53.47,38.72-53.47Z"/>
    <path id="_-3" class="cls-1" d="m1227.91,1022.44s21.2,24.07,37.77,37.55,29.37,28.27,34.45,35.78,13.91,25.18,20.76,33.13,32.69,27.61,41.52,30.04l-123.68,276.96-110.7-34.63,16.25-42.23-13.77-9.28,80.83-143.56s-20.75-31.95-27.95-38.31-39.12-28.39-39.12-28.39c0,0,73.25-111.09,83.63-117.06Z"/>
    <path id="_-4" class="cls-1" d="m1253.08,932.77l66.48-20.98s1.77,9.72,0,10.49-37.55,38.1-37.55,38.1c0,0-1.42,1.67,4.7,4.81s49.19,15.51,51.4,18.16,8.17,24.74,8.17,24.74h16.12l30.92,25.78,30.92-13.85,39.31,49.47s-17.23,5.08-35.78,17.67-40.42,30.26-45.06,37.1-20.32,34.67-20.32,34.67c0,0-39.52-21.99-43.17-32.09s-21.99-35.49-26.56-40.63-64.77-63.78-64.77-63.78l25.18-89.67Z"/>
    <path id="_-5" class="cls-1" d="m1539.22,838.24c7.48-12.68,18.64-22.31,18.64-22.31l-7.51-5.08c-7.51-5.08-36.66-9.94-41.08-8.83s-15.24-.44-25.18-7.04-19.44-.25-26.5,0-37.55-13.72-37.55-13.72c0,0,5.3-67.36,6.63-79.51s.88-36-3.09-38.43-41.08,7.07-45.5,7.51-8.39-7.51-8.39-7.51l-101.49,261.21s266.06-77.89,271.01-86.29Z"/>
    <path id="_15" class="cls-1" d="m1423.59,663.32s87.68-9.5,111.31,8.83,63.61,59.63,63.61,59.63l-40.64,84.15s-29.14-16.07-44.61-14-27.09-5.77-29.16-6.96-7.9-3.12-14.33-2.57-9.45,2.88-12.17,2.57-37.41-15.44-37.41-15.44c0,0,12.67-103.63,3.4-116.22Z"/>
    <path id="_21" class="cls-1" d="m1539.22,838.24s14.23-14.13,18.64-22.31,3.09-6.85,4.42-8.17,48.59-102.92,54.11-106.45,21.2-10.16,21.2-10.16c0,0,33.57,44.61,43.73,58.31s45.06,43.51,54.33,48.59,54.77,37.55,54.77,37.55c0,0-17.67,35.95-30.48,36.42s-20.54-3.29-28.71,2.01-43.73,60.96-43.73,60.96l-9.28-14.13s-62.94,83.71-75.53,89.23-139.14,57.87-139.14,57.87l-38.43-50.36-31.8,16.28-30.92-25.78-16.67-2.01-7.62-22.73s-57.12-19.86-56.17-22.85,36.85-34.34,37.62-38.22,0-10.49,0-10.49l219.66-73.55Z"/>
    <path id="_23" class="cls-1" d="m1687.51,934.98s-14.8,25.62-12.81,36.22,16.16,43.73,6.31,69.35-37.23,54.77-54.02,61.84-40.2,11.93-40.2,11.93c0,0,6.18,17.89-3.53,17.67s-9.5-9.72-15.46-5.3-25.62,20.98-28.27,32.25-3.98,13.91,4.42,12.81,13.47-6.61,13.91.23.66,24.95-6.4,27.16-9.06,2.65-5.74,5.74,8.17,4.42,3.53,19.44-2.65,24.74,4.42,22.09,9.28-11.93,11.48-17.23,11.48-4.86,17.23-2.65,12.37,19.66,8.39,30.04-4.64,11.48,0,16.34,8.61,6.63,7.95,9.72-28.93,29.37-35.34,27.39-9.5-8.83-16.34-9.28-16.34,4.63-16.34,9.38-31.14,48.48-45.72,53.12c0,0,1.99,9.94-1.77,13.69s-18.33,16.56-11.93,21.2,9.06,13.69,6.18,16.34-17.67,2.43-19.44,12.37,8.17,15.9,12.81,20.32-2.65,21.2-7.29,23.85-9.5,0-9.5,0l-34.9,56.98s-163.66-82.16-170.5-81.28-21.64,8.39-21.64,8.39c0,0,10.96-17.55,11.71-19.21s122.47-272.03,125.29-279.79,22.25-49.78,68.99-72.31,97.37-43.51,111.08-49.21,56.03-19.68,66.42-30.84,67.74-82.89,67.74-82.89l9.28,14.13Z"/>
    <path id="_-6" class="cls-1" d="m1126.86,1404.52l110.7,34.63s-9.94,14.8-13.91,20.1-6.4,10.38-6.63,14.58-13.25,45.94-13.25,45.94c0,0-106.23-43.51-105.13-49.47s28.22-65.77,28.22-65.77Z"/>
    <path id="_12" class="cls-1" d="m1143.1,372.37s26.72,8.91,56.54,29.67,40.64,39.75,57.42,42.85,27.83,0,27.83,0l-6.18-24.74s20.98-3.98,22.09-3.53,17.01,9.63,29.15,9.9,25.62,0,25.62,0l47.71,19.75-7.51,16.29s41.74,20.76,42.18,22.97,51.02,3.09,55.21-1.77,6.63-5.3,6.63-5.3c0,0,7.95,2.87,14.13,2.65s62.28.44,64.93,1.33,8.39,4.2,6.63,9.28-10.6,33.57-9.28,44.17,11.93,41.96,11.93,41.96c0,0,11.71-4.64,18.11-5.3s36.88,26.72,40.64,35.78,20.32,57.87,20.32,57.87c0,0-36.66,12.59-35.78,15.02s4.08,10.84,4.08,10.84c0,0-12.79,6.08-15.72,7.34s-21.27,32.4-21.27,32.4c0,0-55.39-51.91-60.83-57.43s-27.7-10.87-39.2-12.39-71.36,1.72-74.89,1.35-45.5,7.51-45.5,7.51l-8.39-7.51-23.41,55.44s-20.24-14.93-33.97-22.15-41.14-18.47-43.33-19.59-9.86-11.28-14.21-14.09-5.38-8.74-52.23-14.66-104.06-10.12-104.06-10.12c0,0,1.78-13.4-2.99-29.26s-9.95-28.21-12.64-31.37-39.58-41.41-39.58-41.41l15.51-62.88-22.27-18.91,28.84-29.96,20.05,32.8,54.98-86.12,2.71,1.35Z"/>
    <path id="_11" class="cls-1" d="m1150.16,216.89s245.6-72.59,252.22-65.96,62.72,103.36,68.91,97.18,33.57-88.76,30.04-97.61,20.32-4.43,27.39-15.47,18.11,11.48,21.2,6.18,26.5-82.16,48.59-94.53,27.39-16.79,27.39-16.79c0,0,92.76,17.23,98.94,18.55s143.12,109.1,166.97,126.33,186.4,128.98,203.63,129.87-4.42,22.97-4.42,22.97c0,0-22.53-13.25-27.39-11.48s-20.32,14.13-23.85,11.48-187.29-103.36-189.94-102.48-144.44,136.05-144,150.18,49.47,37.99,45.06,45.94-29.15,35.34-29.15,35.34l14.13,6.18s-63.61,70.23-61.84,75.09,119.26,106.18,123.68,114.71,10.16,4.11,4.42,8.53-30.04-.28-43.29-8.53-91.66,13.61-91.66,13.61c0,0-14.59-49.82-20.32-57.87s-39.09-39.53-40.64-35.78c-3.49.61-18.11,5.3-18.11,5.3,0,0-11.33-39.03-11.74-40.68s4.02-27.98,7.18-39.48,1.14-12.87-4.18-15.05-77.62.76-79.6-4.17-2.64,6.6-14.08,7.58-36.82,5.03-45.18.28-44.76-23.76-44.76-23.76l7.51-16.29-47.71-19.75s-23.76.61-28.3-.19-24.42-7.42-26.48-9.7l-22.09,3.53,5.94,23.77s-21.07,5.98-31.84-.19-29.66-25.37-46.91-37.15-62.19-35.28-65.51-35.55l2.71-4.25s14.63,6.07,16.54,6.31,4.46-1.86,5.18-4.59,13.63-56.91,13.6-58.7,1.3-13.45-7.51-18.06-18.77-8.64-21.5-13.97-2.77-16.11-2.77-16.11l15.14-7.57-11.6-37.19Z"/>
  </g><g id="_שכונות"><path class="cls-2" d="m745.93,219.5s128.05,152.61,130.48,152.83,5.74-2.14,5.74-2.14c0,0,79.07,102.85,105.57,120.96s85.69,72.44,85.69,72.44l-7.95,21.2-35.34-6.63s-9.5,65.82-7.07,74.21l-251.78,20.32s-18.55-1.77-15.9-11.48,30.04-109.55,30.04-109.55l-51.24-9.72,11.76-28.71-42.23-8.39,11.48-61.84-9.28-8.39s19.66-86.58,25.62-97.84,6.18-20.32,2.65-23.41-23.41-11.04-23.41-11.04l35.17-82.82Z"/>
    <path class="cls-2" d="m1533.52,145.84s-14.63-13.14-19.49-6.51-13.91,24.07-9.28,43.29,2.07,35.56-1.28,45.94-12.85,15.02-12.85,15.02l-11.04-8.39-7.51,8.39s-40.42-36.54-48.59-53.06-21.64-48.1-21.64-48.1c0,0-271.44,66.7-272.32,74.43s10.16,66.48,16.79,71.56,20.1,12.4,21.64,15.7.88,31.35-6.85,48.79-10.6,20.1-8.39,23.41,62.49,27.61,68.02,37.55,28.72,25.18,28.72,25.18c0,0,18.11-9.28,24.74-9.72s6.15-17.89,19.75-16.79,108.13,24.07,108.79,26.5-5.74,19.44-5.74,19.44c0,0,43.29,8.61,44.17,11.04s-22.09,87.9-22.09,87.9c0,0,79.73,15.9,83.48,13.25s7.07-22.09,7.07-22.09c0,0,21.64,6.18,29.15,4.42s12.81-11.04,12.81-11.04l28.15.18s-2.84-13.46-1.99-19.16,15.53-55.78,15.53-55.78c0,0-50.41-161-56.64-177.29s-16.16-36.26-16.13-55.33-.9-74.25,13.02-88.73Z"/>
    <path class="cls-2" d="m703.7,504.85s-19.44,73.55-19.21,80.83-1.77,15.02,2.21,15.46,12.59-1.33,13.25,3.09-15.85,66.48-15.77,68.47-66.62,14.36-68.6,18.11-66.26,143.56-69.79,157.25-29.82,102.7-23.85,105.79,11.48,4.42,18.55,0,12.37-17.45,12.37-17.45l15.02.44s-1.1,5.96,8.83,9.28,22.97,2.65,22.97,2.65l10.16-15.9s65.84,23.85,73.34,26.06,16.77,3.09,16.77,3.09l62.72-102.92s-24.52-4.2-26.5-7.07l-19.44,19.44s-27.14-1.33-33.56-4.42-41.31-18.55-41.31-18.55l46.16-115.07,27.83,9.5,11.48-22.53,49.03,15.9s-1.77,4.64-7.51,21.64-17.23,58.31-17.23,58.31l52.12,15.46s7.51-21.87,10.16-26.06,18.99-18.55,21.2-26.94l87.46,26.5,4.42-4.42,56.54,19.88s59.85-51.02,69.79-64.27,45.72-83.93,45.5-111.31-17.01-79.73-25.4-81.5l-7.95,21.2-35.34-6.63-7.07,74.21-246.7,20.32s-24.04-.29-20.98-11.48,30.04-109.55,30.04-109.55l-51.24-9.72,11.76-28.71-42.23-8.39Z"/>
    <path class="cls-2" d="m775.64,823.38l-12.97,35.72s-25.18-4.86-26.5-7.07l-19.44,19.44s-27.52-1.63-33.56-4.42-41.31-18.55-41.31-18.55l46.16-115.07,27.83,9.5,11.48-22.53,49.03,15.9-24.74,79.95,24.02,7.12Z"/>
    <path class="cls-2" d="m983.53,820.67l-56.54-19.88-4.42,4.42-87.46-26.5s-3.75,7.36-6.66,10.72-12.75,12.57-14.54,16.22-10.16,26.06-10.16,26.06l-28.11-8.34s-11.87,38.15-11.65,48.09,11.48,43.51,22.09,49.91,36,20.98,62.72,10.6,134.72-111.31,134.72-111.31Z"/>
    <path class="cls-2" d="m699.94,962.02l-5.08,18.11h-18.99s-5.96,7.51-4.86,11.48,7.29,31.36,8.39,40.64-2.21,31.58-17.23,47.71-102.7,119.71-113.08,136.93-18.55,46.38-18.55,46.38l38.87,13.34s41.96-84.68,45.83-92.41,30.37-44.61,41.19-51.24,49.25-18.55,79.07-29.15,67.58-32.02,82.16-50.8,68.47-73.33,81.5-84.81,22.53-22.97,22.53-22.97l-36.08-38.58s-31.72,23.64-36.81,25.33-44.17,6.4-62.72-10.6-24.04-53.09-22.09-57.87-3.28-1.2-3.28-1.2l-60.76,99.71Z"/>
    <path class="cls-2" d="m652.7,1135.85l54.82,24.13s-12.89,34.21-10.01,48.29c-.98,12.33-4.12,14.09-4.12,14.09l-77.18-39.92s22.89-41.57,36.49-46.59Z"/>
    <path class="cls-2" d="m775.16,1085.62s12.57,25.81,12.8,30.45-4.64,51.79-5.3,65.15-1.33,39.53-5.3,46.6-5.96,8.61-5.96,8.61c0,0-17.69-10.58-25.68-14.07s-48.38-15.23-48.38-15.23c0,0,.78-25.66,10.2-47.15l-54.82-24.13s4.84-4.31,15.59-8.4,51.63-17.9,63.77-22.43,35.12-14.76,43.1-19.41Z"/>
    <path class="cls-2" d="m782.66,1181.23s87.02,9.5,93.42,15.46c0,0-7.18,19.66-5.74,21.42s66.26,44.72,69.35,45.72,4.42,36.66,3.75,39.75-1.1,4.64-6.85,1.77-36.66-18.11-36.66-18.11l5.74-11.71-23.19-8.61s-5.41,17.34-10.16,23.41-60.96-27.39-60.96-27.39l5.96-10.6-45.94-15.9s7.03-8.31,8.12-15.6,3.14-39.61,3.14-39.61Z"/>
    <path class="cls-2" d="m943.61,1268.06s7.7-3.53,10.23-8.25,3.26-6.48,3.26-6.48l-55.66-49.47,29.15-25.03s-2.5-14.13-10.31-11.78-26.5,32.1-26.5,32.1l-16.2-2.94s-8.81,20.69-7.25,21.9,65.44,42.99,67.34,44.63,5.93,5.32,5.93,5.32Z"/>
    <path class="cls-2" d="m957.1,1253.34l82.01,57.42s94.23-159.9,103.66-168.44c3.24-6.46-35.93-28.86-35.93-28.86,0,0,32.39-38.91,33.57-44.63s7.07-23.1-2.36-33.7-67.58-56.25-84.81-58.9l-14.43,18.85,19.73,19.14s-7.36,1.33-9.72,12.96-3.68,18.4-7.36,18.55-8.25,9.87-13.55,18.55-4.12,24.74-7.95,26.8-10.45,2.5-16.2,10.31-10.31,24-11.48,27.39-7.07-1.77-7.07-1.77l-31.8,35.34,8.25,10.6-18.05,18.55-13.01-12.66-29.15,25.03,55.66,49.47Z"/>
    <path class="cls-2" d="m1035.58,1323.42s4.48-14.63,7.03-18.58,69-114.9,69-114.9c0,0,32.78-50.72,33.22-51.75s66.11-107.48,83.78-111.17c12.81,7.8,40.34,36.52,40.34,36.52,0,0,1.18,7.07-7.36,6.77s-61.55,35.04-61.55,35.04l7.36,39.46-25.62,3.53-7.07-31.8-34.16,41.82,10.01,7.36-2.94,11.19-10.6-1.69-.29,28.2,9.72,9.72,10.01-3.53,2.8,7.76s-27.98,36.85-27.68,43.33,0,25.33,0,25.33l27.68,7.66,15.31-25.62,10.6,5.6-57.72,131.93-32.98-10.01,9.29-21.79s-21.07-12.96-23.42-18.26-38.87-32.69-44.76-32.1Z"/>
    <path class="cls-2" d="m1174.57,1114.79s11.34-8.39,23.56-5.3l2.84.85,6.43,34.49-25.62,3.53-7.21-33.57Z"/>
    <path class="cls-2" d="m1269.01,1064.72s27.33,30.48,27.77,32.1-17.23,9.53-17.08,11.98.59,16,.59,16l-27.09,6.48,2.36,13.55-15.31,5.3-1.77,16.67-21.2,2.77v14.43s-22.82,4.12-26.28,7.36-14.36,17.67-14.36,17.67c0,0-18.86,4.23-19.52,2.41s-10.67,1.71-10.67,1.71l-9.72-9.72.29-28.2,10.6,1.69,2.94-11.19-10.01-7.36,34.16-41.82,7.07,31.8,25.62-3.53-6.72-36.02-1.08-5.21s56.86-31.98,58.57-32.5,10.83-6.37,10.83-6.37Z"/>
    <path class="cls-2" d="m1296.79,1095.06s35.33,49.03,49.76,55.66,14.72,8.54,14.72,8.54l-45.64,110.13s-111.75-25.33-113.37-22.09-15.02,26.5-15.02,26.5l-12.66-5.74-14.65,24.51-28.34-6.55s-1.76-21.95.15-26.48,27.53-42.18,27.53-42.18l-2.14-5.94,17.45-1.96s12.96-14.43,16.42-18.11,26.28-7.36,26.28-7.36v-14.43l21.2-2.77,1.77-16.67,15.31-5.3-2.36-13.55,27.09-6.48s-1.73-14.46-.59-16,17.09-13.75,17.09-13.75Z"/>
    <path class="cls-2" d="m1127.45,1405.58s-13.4,37.91-16.93,40.34-10.82,16.71-4.42,23.71,91.88,45.2,91.88,45.2l33.13-75.53-103.66-33.72Z"/>
    <polygon class="cls-2" points="1316.17 1268.06 1235.53 1440.18 1127.45 1405.58 1187.23 1273.8 1202.25 1247.3 1316.17 1268.06"/>
    <path class="cls-2" d="m1474.5,1416.99s-7.07,3.31-13.69,8.39,10.16,22.53,10.16,22.53c0,0-49.69,91.44-54.33,83.04s-181.1-90.77-181.1-90.77l81.4-173.95,44.34-106.99c3.09-7.45,43.88-53.23,43.88-53.23,0,0,26.94,25.62,30.92,25.84s10.16-3.09,22.09-.44,36.66,9.72,36.66,9.72c0,0-4.64,33.13,4.42,38.43s20.32,7.07,27.39,1.77,11.71-21.57,13.4-20.32-4.56,24.52,0,20.02,5.89-11.85,9.57-8.25,8.02,20.25-.88,29.6c0,0,13.55,8.39,9.28,15.17s-3.83,12.74-4.27,20.02-.59,10.75-.59,10.75c0,0,13.91-5.96,13.84-7.36s-.88-9.2,1.77-8.54,9.5,20.61,8.39,31.51-22.67,33.28-34.01,39.61-16.05,29.45-27.68,36.22-11.04,16.34-17.96,19.14-13.4,4.71-13.84,10.9-3.24,17.23-9.42,20.91,2.94,20.91.29,26.28Z"/>
    <path class="cls-2" d="m1681.37,919.4l10.6,15.9s-9.13,10.6-10.6,20.61-.59,24.15,4.71,36.52,3.78,35.63.27,44.76-19.6,31.73-22.58,32.83-41.41,28.82-56.76,31.8-40.75,20.87-44.61,24.52-18.66,16.12-20.21,22.31-2.17,12.37-2.17,12.37c0,0-10.2,19.16-14.36,20.98s-26.97,3.05-29.26-5.7-3.68-29.75-1.58-35.16c0,0-35.16-10.48-43.86-10.71s-13.38,2.02-14.89,1.43-29.68-25.84-29.68-25.84c0,0,37.93-30.99,51.47-33.5s96.74-33.42,110.43-40.49,54.18-33.13,64.79-45.64,48.29-66.99,48.29-66.99Z"/>
    <path class="cls-2" d="m1251.13,935.61l-23.56,91.42s58.49,55.44,66.35,66.08,36.04,48.47,48.79,55.25c12.89,7.88,17.89,10.1,17.89,10.1,0,0,38.95-48.68,45.13-53.54s43.01-32.39,51.43-32.25l-30.23-52.64s-30.92,15.46-34.45,15.9-5.08-7.58-6.77-9.72-18.26-2.94-18.26-2.94c0,0-2.5-15.83-6.18-17.08s-11.48,1.62-11.48,1.62c0,0-6.18-19.88-8.83-21.94s-49.77-17.67-56.61-23.56-29.01-26.18-29.74-26.71-3.46,0-3.46,0Z"/>
    <path class="cls-2" d="m1340.21,983.34s9.39-3.64,9.94-9.06,5.63-16.23,7.95-17.45,19.1,8.39,26.5,9.06,25.07,4.31,24.29,7.51-5.52,18.33-9.5,18.33-28.71-10.38-35.78-9.72-7.29,2.1-10.38,2.21-10.87,3.7-10.87,3.7l-2.16-4.59Z"/>
    <path class="cls-2" d="m1051.75,978.18s-41.79-22.27-59.61-23.45-59.78,22.97-66.85,31.51-34.01,39.75-32.69,51.53,54.63,65.67,72.74,72.74c6.81,4.27,15.61-7.66,15.61-7.66,0,0,18.85-20.61,23.56-36.52s31.17-79.73,47.24-88.16Z"/>
    <path class="cls-2" d="m990.82,888.33c2.72,3.28,37.1,44.76,37.1,44.76,0,0-14.28,12.22-13.84,15.61s-.88,9.42-.88,9.42c0,0-11.93-5.01-25.03-5.01s-61.84,31.8-62.87,33.13-22.34-21.47-22.34-21.47c0,0,85.15-79.72,87.87-76.44Z"/>
    <path class="cls-2" d="m1002.3,897.61s13.25-14.28,22.38-14.43,13.25-1.91,15.31-4.12,7.95-8.54,7.95-8.54l43.88,39.75s-17.82,9.87-19.44,17.96-7.07,19.44-7.07,19.44l-7.66-3.24-5.91,10.27s-45.48-46.93-49.45-57.09Z"/>
    <path class="cls-2" d="m1013.43,794.64s9.93,6.38,10.52,10.21,13.55,35.93,18.55,38.58,14.28-7.51,14.43-6.77,15.9,17.96,15.9,17.96l-.29,2.65-19.55,17.82-5.04-4.57s-7.32,8.41-8.91,9.41-8.31,3.69-14.35,3.25-22.38,15.9-22.38,15.9l-11.48-10.75-67.1,57.19-37.19-39.6s123.45-105.15,126.9-111.28Z"/>
    <path class="cls-2" d="m1024.25,806.05s60.43-48.88,62.64-49.1,84.26,84.59,89.89,85.47-71.56,72.77-72.44,74.21-51.13-40.7-51.35-41.55,19.25-15.17,19.55-17.82.29-4.9.29-4.9l-15.9-15.72s-7.94,6.12-9.87,6.64-4.6,1.17-6.64-1.96-16.17-35.28-16.17-35.28Z"/>
    <path class="cls-2" d="m788.44,1115.47c0,3.09-4.71,48.68-6,65.63,21.24-.7,111.13,17.93,111.13,17.93,0,0,3.59-5.51,10.34-15.18s16.17-16.92,20.03-16.7,6.45,11.56,6.45,11.56l13.01,12.66,18.05-18.55-8.25-10.6s27.09-41.23,31.8-35.34,7.07,1.77,9.93-6.99c4.78-17,15.75-25.07,21.7-27.64s8.12-12.93,7.54-17.91,10.24-21.61,12.55-25.07,4.52-3.67,8.35-7.69,3.53-14.54,4.71-18.66,8.54-8.84,8.54-8.84l-19.73-19.14s-38.7,81.4-51.3,99.98-22.17,15.46-22.17,15.46c0,0-36.96-28.86-51.72-41.69s-18.6-25.4-19.59-38.25,31.26-44.33,31.26-44.33c0,0-22.34-21.47-26.13-18.04s-57.06,51.02-74.39,76.3-49.61,41.11-49.61,41.11c0,0,13.49,26.88,13.49,29.97Z"/>
    <path class="cls-2" d="m1149.41,873.04l46.14,46.36s-40.53,41.74-38.65,44.39c0,0,71.13,61.46,71.03,61.87s-8.71,6.26-18.35,18.39-66.27,96.6-66.27,96.6c0,0-31.32-25.73-36.47-27.2s27.61-24.94,31.89-41.24,5.71-30.98-.72-37.14-64.01-55.61-83.59-58.85l-4.6.94-37.51-19.4s1.24-9.12,2.19-10.63.16-3.01.16-3.01l15.56-12.3,21.52,22.86,5.91-10.27,7.94,2.63s7.18-12.97,7.22-16.39,1.02-7.01,4.99-10.38,14-12.68,14-12.68l11.63,8.72,45.96-43.28Z"/>
    <path class="cls-2" d="m1637.41,681.9s19.81,59.34,36.59,67.29,70.97,48.88,85.99,65.96,24.74,22.67,24.15,27.09-4.12,21.79-12.37,24.74-21.2,9.75-23.56,6.05-7.07-5.46-7.07-5.46c0,0-9.49-5.6-20.79,11.78s-28.38,55.95-28.38,55.95l-10.6-15.9s-43.52,63.18-50.63,69.5-52.54,38.31-60.54,42.12-103.42,41.65-113.03,39.74l-30.23-50.72-31.83,15.04s-6.66.77-8.47-7.17-19.19-4.63-19.19-4.63c0,0-2.42-14.58-4.83-15.95s-12.83.49-12.83.49l-7.41-19.89s13.83-5.48,18.9-5.63,36.47,10.23,38.13,9.44,10.01-14.83,9.5-18.33-18.74-3.95-25.97-7.77-22.62-9-23.72-8.9-6.06,7.45-7.14,10.57.68,6.98-3.52,10.46-8.33,5.58-8.33,5.58c0,0-50.31-15.98-58.48-23.29,0,0,35.36-40.79,35.51-40.65s-3.39-7.8,0-10.75,6.18-3.98,10.6-4.12,189.2-56.25,200.98-63.31,22.82-4.56,37.25-38.13,34.75-71.85,34.75-71.85c0,0-5.89-7.51-2.06-8.83s6.18-7.21,9.72-11.78,20.9-29.01,28.93-28.72Z"/>
    <path class="cls-2" d="m1637.41,681.9c2.14-.22-4.05-7.8,13.62-13.1s77.45-22.67,85.4-23.56,58.9,7.66,61.25,7.66,9.13-.72,5.3-7.72-58.6-55.89-73.03-62.37-42.11-13.84-44.17-18.85-3.53-24.44-6.48-30.63,16.79-17.37,17.67-25.91,15.61-42.4,29.74-60.66,28.86-30.33,28.86-31.8-53.6-47.71-53.6-47.71c0,0,142.82-154.6,149.01-153.72s120.44,64.79,130.16,71.85,42.4,23.85,63.61,22.97,50.06,10.6,50.06,10.6l9.42-18.26s-67.73-36.32-88.34-48.2-274.16-210.94-279.17-210.94-107.78-17.67-107.78-17.67c0,0-41.6,21.57-52.64,49.4s-19.88,57.42-23.85,58.53l-11.93-1.1s-17.67,35.34-18.99,52.12-3.31,65.37,7.95,88.79,64.05,194.8,64.05,194.8c0,0-16.56,47.04-15.9,59.63s7.51,52.79,24.29,75.53,16.79,26.28,19.88,37.1,1.33,20.1,5.3,28.27,8.16,15.16,10.3,14.94Z"/>
    <path class="cls-2" d="m1129.52,216.85c-4.42-1.77-102.63,34.82-107.78,33.94s-24.29-21.79-31.51-18.85-116.91,123.83-117.79,124.27,28.8,35.48,30.3,40.19,74.16,85.7,76.4,87.71,60.95,49.68,61.99,50.6,11.82-5.2,17.42-19.19,8.54-21.35,6.77-22.38-21.5-17.67-17.08-25.91,19.14-27.98,22.38-26.8,7.36,8.1,8.83,8.25,22.09-23.71,22.38-27.98-6.48-10.45-8.54-11.19,5.15-12.96,10.31-11.78,13.84,5.89,13.84,5.89c0,0,18.55-31.21,20.02-31.8s12.41,4.66,13.55,4.01,8.77-18.21,12.7-30.03,7.18-36.67,4.23-41.69-21.27-12.42-23.79-18.82-16.3-63.03-14.64-68.44Z"/>
    <path class="cls-2" d="m1151.01,375.82s62.28,29.95,66.28,34.46,22.07,26.02,31.05,28.01c4.83-1.1,22.82-9.94,25.84-8.98s7.45-7.41,8.99-11.69,6-5.76,10.76-5.09,106.17,25.03,107.48,25.77-9.51,35.56-17.46,49.11-31.66,44.17-44.47,54.48-125.15,97.18-126.92,107.19c0,0-17.08-10.45-50.36-7.66s-63.39,2.06-63.39,2.06c0,0,.59-22.91-9.4-47.98s-30.43-51.28-46.48-60.69c0,0,9.98-5.98,14.13-16s8.25-25.66,8.25-25.66c0,0-16.87-13.73-17.71-22.84s21.13-31.05,23.01-29.87,7.23,9.44,8.83,8.25,20.5-23.88,21.22-25.23-.84-8.19-5.88-13.05,3.58-11.17,5.51-11.92,14.59,3.81,15.87,4.48,18.25-30.2,20.72-30.54,14.13,3.41,14.13,3.41Z"/>
    <path class="cls-2" d="m1098.82,641.85s31.58,2.21,45.57,0,29.09-3.05,43.52,0,24.65,7.21,24.65,7.21c0,0-72,60.52-81.42,69.94s-104.98,85.51-104.98,85.51l-12.72-9.88s28.81-24.42,35.84-33.55,36.03-60.24,41.06-80.61,8.49-38.62,8.49-38.62Z"/>
    <path class="cls-2" d="m1253.93,610.29s20.91,20.52,21.05,22.73-12.52,21.2-15.02,28.27-20.32,79.58-25.62,95.67-29.89,83.82-53.89,85.14c-9.28-1.62-93.57-85.14-93.57-85.14l167.05-146.67Z"/>
    <path class="cls-2" d="m1260.85,659.16s12.07,14.5,15.9,16.41,37.4,15.31,37.99,17.37-30.67,93.2-33.01,93.64-52.57-15.13-52.57-15.13c0,0,3.23-6.99,6.71-19.48s24.98-92.82,24.98-92.82Z"/>
    <path class="cls-2" d="m1314.75,689.71s6.32-24.44,15.6-44.17,44.76-74.06,52.12-76.27,28.27,4.12,29.15,7.36-15.31,39.61-14.43,42.4,49.62,38.3,49.77,40.13-17.37,1.69-17.37,1.69c0,0-8.25,104.83-4.42,106.31s17.23,1.33,17.67,0-.15-28.27.59-28.27,50.36-.29,50.36-.29v21.5s-10.16-4.56-14.13.59-10.31,15.75-3.83,20.91,18.55,13.07,17.96,15.59-15.75,17.39-22.67,16.21-21.5-1.63-27.98.07-35.63-8.94-35.63-8.94l-11.19,20.36-18.55-9.13s12.66-27.68,10.6-30.33-59.19-19.14-59.19-19.14c0,0-11.91,28.67-14.42,30.9s-34.02-10.69-34.02-10.69c0,0,31.23-87.01,34.02-96.78Z"/>
    <path class="cls-2" d="m1419.31,556.49s76.63,15.86,81.55,14.46-45.8,88.86-47.86,89.75-6.54-1.03-6.54-1.03l-49.26-40.64s-.13-.88,2.33-8.24,19.78-54.3,19.78-54.3Z"/>
    <path class="cls-2" d="m1511.01,660.93s49.47,16.7,51.83,32.6-1.77,14.13-1.77,14.13c0,0-59.34-8.83-61.55-15.61s9.45-25.18,11.48-31.13Z"/>
    <path class="cls-2" d="m1429.59,660.85s77.83-1.2,81.42.09c0,0-12.04,23.47-11.76,27.3s-2.63,6.76,6.46,8.61,55.36,10.83,55.36,10.83c0,0,2.94-11.17.59-17.51s36.1,33.81,37.24,38.18-37.57,84.76-37.57,84.76c0,0-12.93-9.72-22.35-10.9s-39.37,3.46-45.18-3.98-16.66-15.42-18.94-17.54-3.47-17.34,7.83-22.06c6.45-1.19,11.09,1.46,11.09,1.46v-21.5s-47.26.5-48.73.29-1.55,24.38-1.47,26.36-15.39,4.86-18.4,1.91,4.42-106.31,4.42-106.31Z"/>
    <path class="cls-2" d="m1229.17,771.46s81.6,26.11,83.59,25.91,16.34-30.94,16.34-30.94c0,0,57.22,14.07,58.16,18.28s-10.98,35.3-15.4,40.16,30.18,17.67,32.1,17.23,9.1,35.07,13.75,35.79c-16.4,6.91-90.54,21.61-96.24,27.93s-3.95,11.81-4.24,13.58-35.51,40.65-35.51,40.65c0,0-24.12-25.3-27.14-24.43s-26.67,90.05-26.67,90.05c0,0-74.44-62.84-72.2-63.64s39.83-42.63,39.83-42.63l-46.14-46.36s26.93-30.94,28.99-30.94,14.02-.47,24.22-17.23,26.55-53.41,26.55-53.41Z"/>
    <path class="cls-2" d="m1396.15,458.05s45.38,8.56,45,11.46-25.99,105.35-29.52,107.12-20.17-11.22-26.36-7.82-28.18,29.12-41.55,52.93-28.96,68.27-28.97,69.74-29.42-7.86-38-15.9-17.23-14.16-14.8-18.66,13.7-22.67,13.03-23.89-21.05-22.73-21.05-22.73c0,0,83.63-66.63,86.5-69.2s47.3-45.25,55.72-83.04Z"/>
    <path class="cls-2" d="m1579.73,542.13s3.08,20.68,9.51,35.05,23.46,34.41,28.01,47.96,5.18,26.23,7.52,34.03,13.76,18.95,6.89,25.17-32.9,38.06-32.9,38.06c0,0-34.75-25.48-35.93-28.86s-26.94-29.57-51.83-32.6-58.01-.23-58.01-.23c0,0,57.72-92.76,56.61-112.12,5.67.81,17.52,4.87,23.34,4.64s19.43-7.07,18.62-11.27,28.15.18,28.15.18Z"/>
</g></svg>
